<svg width="116" height="19" viewBox="0 0 116 19" fill="none" xmlns="http://www.w3.org/2000/svg">
<path d="M5.64297 16.15C4.05297 16.15 2.84797 15.715 2.02797 14.845C1.21797 13.975 0.812969 12.8 0.812969 11.32C0.812969 10.26 0.982969 9.35 1.32297 8.59C1.67297 7.82 2.20297 7.23 2.91297 6.82C3.62297 6.4 4.52797 6.19 5.62797 6.19C6.18797 6.19 6.69797 6.235 7.15797 6.325C7.62797 6.405 8.06297 6.515 8.46297 6.655V8.08C8.06297 7.92 7.63297 7.8 7.17297 7.72C6.72297 7.63 6.24797 7.585 5.74797 7.585C4.54797 7.585 3.69797 7.905 3.19797 8.545C2.70797 9.185 2.46297 10.11 2.46297 11.32C2.46297 12.45 2.73297 13.31 3.27297 13.9C3.81297 14.48 4.64797 14.77 5.77797 14.77C6.23797 14.77 6.69797 14.735 7.15797 14.665C7.62797 14.585 8.06797 14.465 8.47797 14.305V15.745C8.07797 15.875 7.64297 15.975 7.17297 16.045C6.71297 16.115 6.20297 16.15 5.64297 16.15ZM18.3102 16V6.34H22.2252C23.6552 6.34 24.7152 6.72 25.4052 7.48C26.0952 8.23 26.4402 9.48 26.4402 11.23C26.4402 12.88 26.1002 14.09 25.4202 14.86C24.7402 15.62 23.6752 16 22.2252 16H18.3102ZM19.9452 14.74H21.9702C22.6002 14.74 23.1252 14.65 23.5452 14.47C23.9652 14.28 24.2802 13.93 24.4902 13.42C24.7002 12.91 24.8052 12.18 24.8052 11.23C24.8052 10.28 24.7102 9.545 24.5202 9.025C24.3302 8.505 24.0252 8.14 23.6052 7.93C23.1952 7.72 22.6502 7.615 21.9702 7.615H19.9452V14.74ZM28.0514 16V8.89H29.5514L29.6414 9.715C29.9814 9.495 30.3864 9.295 30.8564 9.115C31.3264 8.935 31.7914 8.81 32.2514 8.74V9.985C31.9714 10.035 31.6664 10.11 31.3364 10.21C31.0164 10.3 30.7114 10.405 30.4214 10.525C30.1314 10.635 29.8864 10.75 29.6864 10.87V16H28.0514ZM34.0421 7.405V6.055H35.8271V7.405H34.0421ZM34.1771 16V10.135H33.0971L33.2471 8.89H35.8121V16H34.1771ZM39.9314 16L37.1264 8.89H38.8214L40.8164 14.41L42.8114 8.89H44.4914L41.7014 16H39.9314ZM48.878 16.15C47.638 16.15 46.678 15.845 45.998 15.235C45.318 14.625 44.978 13.69 44.978 12.43C44.978 11.29 45.268 10.39 45.848 9.73C46.428 9.07 47.308 8.74 48.488 8.74C49.568 8.74 50.378 9.025 50.918 9.595C51.468 10.155 51.743 10.88 51.743 11.77V13.09H46.538C46.618 13.78 46.868 14.255 47.288 14.515C47.708 14.775 48.348 14.905 49.208 14.905C49.568 14.905 49.938 14.87 50.318 14.8C50.698 14.73 51.028 14.64 51.308 14.53V15.73C50.988 15.87 50.618 15.975 50.198 16.045C49.788 16.115 49.348 16.15 48.878 16.15ZM46.538 12.025H50.303V11.53C50.303 11.04 50.168 10.66 49.898 10.39C49.628 10.11 49.173 9.97 48.533 9.97C47.773 9.97 47.248 10.135 46.958 10.465C46.678 10.795 46.538 11.315 46.538 12.025ZM53.3346 16V8.89H54.8346L54.9246 9.715C55.2646 9.495 55.6696 9.295 56.1396 9.115C56.6096 8.935 57.0746 8.81 57.5346 8.74V9.985C57.2546 10.035 56.9496 10.11 56.6196 10.21C56.2996 10.3 55.9946 10.405 55.7046 10.525C55.4146 10.635 55.1696 10.75 54.9696 10.87V16H53.3346ZM64.6873 16V7.615H61.5973V6.34H69.3973V7.615H66.3223V16H64.6873ZM69.4333 16V8.89H70.9333L71.0233 9.715C71.3633 9.495 71.7683 9.295 72.2383 9.115C72.7083 8.935 73.1733 8.81 73.6333 8.74V9.985C73.3533 10.035 73.0483 10.11 72.7183 10.21C72.3983 10.3 72.0933 10.405 71.8033 10.525C71.5133 10.635 71.2683 10.75 71.0683 10.87V16H69.4333ZM76.5898 16.15C76.1398 16.15 75.7198 16.07 75.3298 15.91C74.9498 15.75 74.6448 15.51 74.4148 15.19C74.1848 14.86 74.0698 14.455 74.0698 13.975C74.0698 13.295 74.2998 12.75 74.7598 12.34C75.2298 11.92 75.9498 11.71 76.9198 11.71H79.1998V11.395C79.1998 11.055 79.1448 10.785 79.0348 10.585C78.9348 10.385 78.7448 10.24 78.4648 10.15C78.1948 10.06 77.7948 10.015 77.2648 10.015C76.4248 10.015 75.6398 10.14 74.9098 10.39V9.175C75.2298 9.045 75.6198 8.94 76.0798 8.86C76.5398 8.78 77.0348 8.74 77.5648 8.74C78.6048 8.74 79.3948 8.95 79.9348 9.37C80.4848 9.79 80.7598 10.475 80.7598 11.425V16H79.3648L79.2598 15.28C78.9698 15.56 78.6098 15.775 78.1798 15.925C77.7598 16.075 77.2298 16.15 76.5898 16.15ZM77.0248 14.98C77.5148 14.98 77.9398 14.9 78.2998 14.74C78.6698 14.57 78.9698 14.345 79.1998 14.065V12.82H76.9498C76.4698 12.82 76.1198 12.915 75.8998 13.105C75.6898 13.285 75.5848 13.565 75.5848 13.945C75.5848 14.315 75.7098 14.58 75.9598 14.74C76.2098 14.9 76.5648 14.98 77.0248 14.98ZM83.1729 7.405V6.055H84.9579V7.405H83.1729ZM83.3079 16V10.135H82.2279L82.3779 8.89H84.9429V16H83.3079ZM86.8503 16V8.89H88.3503L88.4253 9.64C88.7453 9.39 89.1253 9.18 89.5653 9.01C90.0153 8.83 90.5103 8.74 91.0503 8.74C91.9703 8.74 92.6403 8.955 93.0603 9.385C93.4803 9.815 93.6903 10.485 93.6903 11.395V16H92.0703V11.47C92.0703 10.92 91.9553 10.535 91.7253 10.315C91.5053 10.095 91.0853 9.985 90.4653 9.985C90.0953 9.985 89.7303 10.06 89.3703 10.21C89.0203 10.36 88.7253 10.555 88.4853 10.795V16H86.8503ZM96.1221 7.405V6.055H97.9071V7.405H96.1221ZM96.2571 16V10.135H95.1771L95.3271 8.89H97.8921V16H96.2571ZM99.7995 16V8.89H101.299L101.374 9.64C101.694 9.39 102.074 9.18 102.514 9.01C102.964 8.83 103.459 8.74 103.999 8.74C104.919 8.74 105.589 8.955 106.009 9.385C106.429 9.815 106.639 10.485 106.639 11.395V16H105.019V11.47C105.019 10.92 104.904 10.535 104.674 10.315C104.454 10.095 104.034 9.985 103.414 9.985C103.044 9.985 102.679 10.06 102.319 10.21C101.969 10.36 101.674 10.555 101.434 10.795V16H99.7995ZM111.351 18.64C110.821 18.64 110.291 18.605 109.761 18.535C109.231 18.475 108.781 18.38 108.411 18.25V16.99C108.811 17.12 109.271 17.22 109.791 17.29C110.311 17.36 110.806 17.395 111.276 17.395C111.996 17.395 112.521 17.355 112.851 17.275C113.181 17.195 113.346 17.015 113.346 16.735C113.346 16.525 113.266 16.375 113.106 16.285C112.946 16.205 112.641 16.165 112.191 16.165H110.271C108.981 16.165 108.336 15.71 108.336 14.8C108.336 14.51 108.421 14.24 108.591 13.99C108.761 13.74 109.031 13.55 109.401 13.42C108.991 13.22 108.686 12.945 108.486 12.595C108.296 12.245 108.201 11.825 108.201 11.335C108.201 10.425 108.471 9.765 109.011 9.355C109.561 8.945 110.381 8.74 111.471 8.74C111.701 8.74 111.941 8.76 112.191 8.8C112.441 8.83 112.636 8.86 112.776 8.89H115.386L115.341 9.955H114.141C114.331 10.115 114.471 10.315 114.561 10.555C114.651 10.795 114.696 11.055 114.696 11.335C114.696 12.095 114.466 12.695 114.006 13.135C113.546 13.565 112.851 13.78 111.921 13.78C111.761 13.78 111.611 13.775 111.471 13.765C111.341 13.745 111.196 13.725 111.036 13.705C110.736 13.735 110.466 13.815 110.226 13.945C109.986 14.075 109.866 14.25 109.866 14.47C109.866 14.62 109.926 14.73 110.046 14.8C110.166 14.86 110.366 14.89 110.646 14.89H112.641C113.351 14.89 113.896 15.045 114.276 15.355C114.666 15.655 114.861 16.095 114.861 16.675C114.861 17.375 114.556 17.875 113.946 18.175C113.346 18.485 112.481 18.64 111.351 18.64ZM111.471 12.745C112.121 12.745 112.571 12.635 112.821 12.415C113.081 12.195 113.211 11.82 113.211 11.29C113.211 10.76 113.081 10.375 112.821 10.135C112.571 9.895 112.121 9.775 111.471 9.775C110.861 9.775 110.416 9.89 110.136 10.12C109.856 10.35 109.716 10.74 109.716 11.29C109.716 11.8 109.846 12.17 110.106 12.4C110.376 12.63 110.831 12.745 111.471 12.745Z" fill="#2B2828"/>
<path d="M11.3232 16V7.78L9.76316 8.05V6.685L12.9432 6.19V16H11.3232Z" fill="#B60000"/>
</svg>
