<svg width="24" height="24" viewBox="0 0 24 24" fill="none" xmlns="http://www.w3.org/2000/svg">
<path d="M10.95 22.3C7.77 22.3 5.36 21.43 3.72 19.69C2.1 17.95 1.29 15.6 1.29 12.64C1.29 10.52 1.63 8.7 2.31 7.18C3.01 5.64 4.07 4.46 5.49 3.64C6.91 2.8 8.72 2.38 10.92 2.38C12.04 2.38 13.06 2.47 13.98 2.65C14.92 2.81 15.79 3.03 16.59 3.31V6.16C15.79 5.84 14.93 5.6 14.01 5.44C13.11 5.26 12.16 5.17 11.16 5.17C8.76 5.17 7.06 5.81 6.06 7.09C5.08 8.37 4.59 10.22 4.59 12.64C4.59 14.9 5.13 16.62 6.21 17.8C7.29 18.96 8.96 19.54 11.22 19.54C12.14 19.54 13.06 19.47 13.98 19.33C14.92 19.17 15.8 18.93 16.62 18.61V21.49C15.82 21.75 14.95 21.95 14.01 22.09C13.09 22.23 12.07 22.3 10.95 22.3Z" fill="#2B2828"/>
<g filter="url(#filter0_d_1151_11)">
<path d="M18.795 11.5821H21.375V21.4521H19.92V12.9771H18.795V11.5821Z" fill="#B60000"/>
</g>
<defs>
<filter id="filter0_d_1151_11" x="17.795" y="10.5821" width="4.58" height="11.87" filterUnits="userSpaceOnUse" color-interpolation-filters="sRGB">
<feFlood flood-opacity="0" result="BackgroundImageFix"/>
<feColorMatrix in="SourceAlpha" type="matrix" values="0 0 0 0 0 0 0 0 0 0 0 0 0 0 0 0 0 0 127 0" result="hardAlpha"/>
<feOffset/>
<feGaussianBlur stdDeviation="0.5"/>
<feComposite in2="hardAlpha" operator="out"/>
<feColorMatrix type="matrix" values="0 0 0 0 0 0 0 0 0 0 0 0 0 0 0 0 0 0 0.4 0"/>
<feBlend mode="normal" in2="BackgroundImageFix" result="effect1_dropShadow_1151_11"/>
<feBlend mode="normal" in="SourceGraphic" in2="effect1_dropShadow_1151_11" result="shape"/>
</filter>
</defs>
</svg>
